<svg width="128" height="128" viewBox="0 0 128 128" fill="none" xmlns="http://www.w3.org/2000/svg">
<rect width="128" height="128" rx="64" fill="#009E96"/>
<path d="M108.05 29.0017C107.054 29.0314 106.108 29.4479 105.413 30.163L46.7455 88.8304L22.6042 64.6891C22.2507 64.321 21.8273 64.027 21.3587 63.8245C20.8902 63.622 20.386 63.515 19.8757 63.5099C19.3653 63.5047 18.859 63.6014 18.3865 63.7943C17.9139 63.9872 17.4846 64.2725 17.1237 64.6334C16.7628 64.9943 16.4775 65.4236 16.2846 65.8961C16.0917 66.3686 15.995 66.8749 16.0002 67.3853C16.0054 67.8957 16.1124 68.3999 16.3149 68.8684C16.5174 69.3369 16.8113 69.7603 17.1795 70.1138L44.0331 96.9674C44.7526 97.6866 45.7282 98.0906 46.7455 98.0906C47.7627 98.0906 48.7383 97.6866 49.4578 96.9674L110.838 35.5877C111.392 35.0489 111.771 34.3551 111.924 33.5974C112.077 32.8396 111.998 32.0533 111.697 31.3413C111.395 30.6294 110.886 30.0251 110.235 29.6076C109.585 29.1901 108.823 28.9789 108.05 29.0017V29.0017Z" fill="#1F2433"/>
</svg>
